<svg xmlns="http://www.w3.org/2000/svg" xml:space="preserve" width="2000" height="1500" viewBox="0 0 2000 1500">
  <path fill="#111" stroke="transparent" d="M0 0h2000v1500H0z"/>
  <g data-padding="20">
    <g transform="translate(350, 850)">
      <path fill="#c6d2ff" d="M50 0Q45-5 35-10Q20-15 0-15Q-25-15 -40-8Q-55 0 -55 15Q-55 28 -45 38Q-35 48 -10 55L15 62Q45 72 60 88Q75 104 75 130Q75 160 52 180Q30 200 -5 200Q-35 200 -58 185Q-80 170 -85 145L-45 130Q-42 145 -30 155Q-18 165 0 165Q18 165 28 155Q38 145 38 130Q38 118 28 108Q18 98 -5 92L-30 85Q-60 75 -75 58Q-90 42 -90 15Q-90-15 -68-35Q-45-55 -5-55Q20-55 40-45Q60-35 68-18L50 0M150-50L150 0L250 0L250 35L150 35L150 120Q150 140 158 150Q165 160 185 160Q200 160 220 155L220 190Q200 195 180 195Q145 195 128 178Q110 160 110 125L110 35L65 35L65 0L110 0L110-50L150-50M320 0L320 35L240 35L240 0L320 0M320-190L320 0L280 0L280-190L320-190M410 200Q385 200 365 185L365 280L325 280L325 0L365 0L365 18Q385 0 410 0Q445 0 465 25Q485 50 485 100Q485 150 465 175Q445 200 410 200M405 165Q425 165 437 145Q450 125 450 100Q450 75 437 55Q425 35 405 35Q385 35 372 55Q360 75 360 100Q360 125 372 145Q385 165 405 165M560-50L560 120Q560 145 575 155Q590 165 610 165Q630 165 645 150Q660 135 660 110L660 0L700 0L700 125Q700 160 682 178Q665 195 630 195Q605 195 585 178L585 280L545 280L545 35L500 35L500 0L545 0L545-50L560-50M810 0L765 100L720 0L680 0L745 145L680 280L720 280L765 180L810 280L850 280L785 145L850 0L810 0"/>
    </g>
  </g>
</svg>
